<?xml version="1.0" standalone="no"?>
<!DOCTYPE svg PUBLIC "-//W3C//DTD SVG 20010904//EN"
 "http://www.w3.org/TR/2001/REC-SVG-20010904/DTD/svg10.dtd">
<svg version="1.0" xmlns="http://www.w3.org/2000/svg"
 width="700.000000pt" height="700.000000pt" viewBox="0 0 700.000000 700.000000"
 preserveAspectRatio="xMidYMid meet">
<metadata>
Created by potrace 1.14, written by Peter Selinger 2001-2017
</metadata>
<g transform="translate(0.000000,700.000000) scale(0.100000,-0.100000)"
fill="#000000" stroke="none">
<path d="M3278 6995 c-2 -1 -41 -6 -87 -9 -126 -10 -140 -12 -356 -51 -72 -12
-96 -18 -190 -41 -307 -78 -623 -207 -900 -367 -106 -61 -291 -181 -305 -197
-3 -3 -40 -32 -83 -64 -94 -71 -245 -204 -345 -306 -513 -520 -852 -1187 -967
-1900 -31 -193 -40 -324 -40 -565 0 -191 7 -339 19 -402 2 -10 7 -43 10 -74 4
-31 9 -67 11 -80 3 -13 7 -37 9 -54 11 -75 62 -283 103 -415 211 -684 608
-1263 1177 -1718 231 -185 528 -359 823 -483 253 -106 594 -200 848 -234 22
-2 56 -7 75 -10 193 -27 627 -27 848 1 292 36 702 146 920 245 34 16 65 29 68
29 12 0 221 105 303 152 46 26 85 48 87 48 9 0 271 182 344 239 162 126 323
276 460 431 36 40 70 78 77 85 40 42 215 286 284 396 210 340 383 770 455
1134 14 74 44 250 50 300 4 33 8 71 10 85 8 60 11 532 4 605 -20 198 -22 220
-25 225 -2 3 -7 33 -10 65 -4 33 -9 63 -11 66 -2 4 -6 24 -10 45 -3 22 -21
100 -39 174 -165 662 -524 1264 -1036 1735 -491 451 -1152 771 -1799 870 -25
4 -53 9 -62 11 -9 1 -43 6 -75 9 -32 4 -76 9 -98 12 -45 5 -541 13 -547 8z
m473 -169 c52 -4 108 -9 124 -11 17 -3 48 -7 70 -10 54 -7 154 -24 185 -30 14
-3 39 -8 55 -10 65 -12 299 -76 392 -109 465 -161 882 -415 1228 -746 396
-379 700 -864 869 -1385 53 -161 117 -449 132 -585 2 -25 7 -58 9 -74 23 -136
23 -659 0 -729 -2 -6 -6 -39 -9 -72 -4 -33 -8 -71 -11 -85 -3 -14 -10 -52 -15
-85 -59 -360 -238 -820 -452 -1162 -405 -647 -1019 -1136 -1737 -1384 -102
-35 -300 -92 -364 -105 -212 -41 -203 -40 -292 -49 -33 -4 -65 -8 -72 -10 -24
-8 -241 -19 -368 -19 -649 1 -1270 186 -1820 543 -332 215 -667 539 -902 871
-140 198 -291 478 -372 690 -18 47 -37 94 -42 105 -25 56 -109 357 -124 445
-3 19 -8 42 -10 50 -2 8 -6 31 -9 50 -3 19 -7 44 -10 55 -3 18 -12 78 -21 150
-10 77 -19 252 -19 370 0 131 11 354 19 377 2 7 6 37 9 66 45 408 234 940 463
1304 64 102 186 278 208 302 5 6 28 34 50 61 69 86 105 126 245 265 475 474
1072 787 1735 909 61 11 130 23 155 26 25 3 63 7 85 10 22 3 85 8 140 11 55 4
101 7 102 8 5 4 286 -2 374 -8z"/>
<path d="M2265 4275 c-19 -18 -25 -35 -26 -67 -5 -354 0 -499 15 -524 33 -49
93 -50 129 -2 19 25 20 43 19 270 0 134 -1 256 -1 271 -1 38 -42 77 -81 77
-19 0 -40 -9 -55 -25z"/>
<path d="M4633 4288 c-33 -16 -36 -50 -36 -336 l0 -254 26 -25 c52 -52 136
-15 138 60 0 44 0 422 0 475 -1 74 -62 112 -128 80z"/>
<path d="M4100 2932 c-210 -27 -403 -238 -514 -562 -111 -323 -61 -738 120
-996 147 -210 338 -255 569 -135 87 45 219 173 295 285 189 282 237 585 138
886 -105 322 -374 553 -608 522z m164 -193 c209 -104 373 -477 327 -745 -35
-205 -118 -365 -265 -510 -130 -129 -257 -177 -353 -134 -52 23 -117 92 -160
168 -34 61 -80 179 -90 231 -24 128 -29 180 -27 266 2 118 7 151 40 268 69
244 199 420 354 481 30 12 130 -2 174 -25z"/>
</g>
</svg>
